<svg width="49" height="49" viewBox="0 0 49 49" fill="none" xmlns="http://www.w3.org/2000/svg">
<path d="M24.5 24.5C28.228 24.5 31.25 21.4779 31.25 17.75C31.25 14.0221 28.228 11 24.5 11C20.7721 11 17.75 14.0221 17.75 17.75C17.75 21.4779 20.7721 24.5 24.5 24.5Z" stroke="#004394" stroke-width="4"/>
<path d="M24.5 47C36.9264 47 47 36.9264 47 24.5C47 12.0736 36.9264 2 24.5 2C12.0736 2 2 12.0736 2 24.5C2 36.9264 12.0736 47 24.5 47Z" stroke="#004394" stroke-width="4"/>
<path d="M37.9305 42.5C37.5725 35.9941 35.5806 31.25 24.4998 31.25C13.4193 31.25 11.4273 35.9941 11.0692 42.5" stroke="#004394" stroke-width="4" stroke-linecap="round"/>
</svg>
