<svg width="34" height="34" viewBox="0 0 34 34" fill="none" xmlns="http://www.w3.org/2000/svg">
<path fill-rule="evenodd" clip-rule="evenodd" d="M8.21241 17.3707C8.0384 12.3878 11.7454 8.19675 16.5008 8C21.2562 8.19675 24.9632 12.3878 24.7892 17.3707C24.7892 19.4403 26.9355 21.4565 26.9984 23.5309C26.9984 23.5603 26.9984 23.5895 26.9984 23.6189C27.0449 24.9479 26.056 26.0655 24.7877 26.1175H20C20.0045 27.1358 19.6381 28.1177 18.9756 28.8629C18.3386 29.5876 17.4411 30 16.5008 30C15.5604 30 14.663 29.5876 14.026 28.8629C13.3635 28.1177 12.9971 27.1358 13.0016 26.1175H8.21241C6.94407 26.0655 5.95513 24.9479 6.00157 23.6189C6.00157 23.5895 6.00157 23.5603 6.00157 23.5309C6.06607 21.4628 8.21241 19.4419 8.21241 17.3707Z" stroke="white" stroke-width="2" stroke-linecap="round" stroke-linejoin="round"/>
<path d="M13.1158 24.7044C12.4996 24.7044 12 25.2183 12 25.8522C12 26.4861 12.4996 27 13.1158 27V24.7044ZM19.8842 27C20.5004 27 21 26.4861 21 25.8522C21 25.2183 20.5004 24.7044 19.8842 24.7044V27ZM17.9505 6.29556C18.5668 6.29556 19.0664 5.78168 19.0664 5.14778C19.0664 4.51388 18.5668 4 17.9505 4V6.29556ZM15.0494 4C14.4332 4 13.9336 4.51388 13.9336 5.14778C13.9336 5.78168 14.4332 6.29556 15.0494 6.29556V4ZM13.1158 27H19.8842V24.7044H13.1158V27ZM17.9505 4H15.0494V6.29556H17.9505V4Z" fill="white"/>
</svg>
